<svg xmlns="http://www.w3.org/2000/svg" viewBox="0 0 64 64" role="img" aria-label="BEAT">
  <defs>
    <linearGradient id="beatGrad" x1="0%" y1="0%" x2="100%" y2="100%">
      <stop offset="0%" stop-color="#0b1f33"/>
      <stop offset="55%" stop-color="#1a6b8a"/>
      <stop offset="100%" stop-color="#2a9bb5"/>
    </linearGradient>
  </defs>
  <rect width="64" height="64" rx="12" fill="url(#beatGrad)"/>
  <path fill="#e8f4f8" d="M14 16h16c7.2 0 12 3.8 12 10.2 0 3.6-1.8 6.4-4.8 8.1 3.8 1.5 6.2 4.8 6.2 9.1C43.4 50.2 37.8 54 29.6 54H14V16zm10.2 14.2h5.2c3.1 0 4.9-1.5 4.9-3.9s-1.8-3.8-4.9-3.8h-5.2v7.7zm0 17.3h6.1c3.5 0 5.5-1.7 5.5-4.4s-2-4.3-5.5-4.3h-6.1v8.7z"/>
</svg>
